HIERARCHY
ROOT Hips
{
    OFFSET 0.000000 0.000000 0.000000
    CHANNELS 6 Xposition Yposition Zposition Zrotation Xrotation Yrotation
        JOINT Chest
        {
            OFFSET -0.000000 28.596201 -0.000000
            CHANNELS 3 Zrotation Xrotation Yrotation
            JOINT Neck
            {
                OFFSET -0.000000 20.833183 0.000000
                CHANNELS 3 Zrotation Xrotation Yrotation
                JOINT Head
                {
                    OFFSET -0.000000 10.327778 0.000000
                    CHANNELS 3 Zrotation Xrotation Yrotation
                    End Site
                    {
                        OFFSET -0.000000 15.961117 0.000000
                    }
                }
            }
            JOINT LeftCollar
            {
                OFFSET -0.000000 20.833183 0.000000
                CHANNELS 3 Zrotation Xrotation Yrotation
                JOINT LeftShoulder
                {
                    OFFSET 18.777777 -0.000000 0.000000
                    CHANNELS 3 Zrotation Xrotation Yrotation
                    JOINT LeftElbow
                    {
                        OFFSET 23.016544 0.000000 0.000000
                        CHANNELS 3 Zrotation Xrotation Yrotation
                        JOINT LeftWrist
                        {
                            OFFSET 24.619797 0.000000 0.000000
                            CHANNELS 3 Zrotation Xrotation Yrotation
                            End Site
                            {
                                OFFSET 0.000000 -14.083333 0.000000
                            }
                        }
                    }
                }
            }
            JOINT RightCollar
            {
                OFFSET -0.000000 20.833183 0.000000
                CHANNELS 3 Zrotation Xrotation Yrotation
                JOINT RightShoulder
                {
                    OFFSET -18.777777 0.000000 0.000000
                    CHANNELS 3 Zrotation Xrotation Yrotation
                    JOINT RightElbow
                    {
                        OFFSET -23.016544 0.000000 0.000000
                        CHANNELS 3 Zrotation Xrotation Yrotation
                        JOINT RightWrist
                        {
                            OFFSET -24.619797 0.000000 0.000000
                            CHANNELS 3 Zrotation Xrotation Yrotation
                            End Site
                            {
                                OFFSET -0.000000 -14.083333 0.000000
                            }
                        }
                    }
                }
            }
        }
    JOINT LeftHip
    {
        OFFSET 11.266668 0.000000 0.000000
        CHANNELS 3 Zrotation Xrotation Yrotation
        JOINT LeftKnee
        {
            OFFSET -0.000000 -40.535309 0.000000
            CHANNELS 3 Zrotation Xrotation Yrotation
            JOINT LeftAnkle
            {
                OFFSET -0.000000 -39.958225 0.000000
                CHANNELS 3 Zrotation Xrotation Yrotation
                End Site
                {
                    OFFSET -0.000000 -4.694444 15.961117
                }
            }
        }
    }
    JOINT RightHip
    {
        OFFSET -11.266668 0.000000 0.000000
        CHANNELS 3 Zrotation Xrotation Yrotation
        JOINT RightKnee
        {
            OFFSET -0.000000 -40.535309 0.000000
            CHANNELS 3 Zrotation Xrotation Yrotation
            JOINT RightAnkle
            {
                OFFSET -0.000000 -39.958225 0.000000
                CHANNELS 3 Zrotation Xrotation Yrotation
                End Site
                {
                    OFFSET -0.000000 -4.694444 15.961117
                }
            }
        }
    }
}
MOTION
Frames:    9
Frame Time:    0.010000
58.924721    90.360023    -1.966249    4.783400    -3.241714    -83.924698    7.548759    5.710877    -2.472747    -10.361261    6.342453    18.045719    1.436820    -38.487156    17.970539    -25.724974    -4.212869    17.896290    9.483295    33.942085    -90.501099    19.378063    -9.391659    -52.340282    132.362762    40.011791    38.411930    23.092653    1.619889    8.085341    35.101555    23.671278    17.206720    7.993735    5.913839    73.893417    -128.095840    -16.609488    0.011634    1.525858    -5.361711    -1.990707    -26.719692    36.724377    19.939787    -1.641859    -6.647902    11.727040    3.311644    -15.178933    -0.502091    -16.557653    35.156200    20.095552    4.684041    -10.517700    -5.556285    
59.125000    89.975563    -1.746385    4.699798    -3.197674    -84.592491    7.642320    5.607503    -2.037611    -10.579597    6.708498    18.087212    1.570155    -38.742504    18.018610    -26.098927    -4.209241    17.565779    8.883083    33.117325    -89.833611    18.900732    -9.127505    -52.259422    131.699905    38.583092    38.299896    23.506495    1.729022    8.465716    34.585030    23.362438    17.724895    7.694129    5.578945    73.700996    -128.726349    -16.477045    -0.674369    2.842253    -5.764777    -1.240931    -28.491461    38.380257    21.850252    0.117882    -7.120653    13.634730    3.607764    -14.550995    0.801743    -16.120815    34.374161    19.566395    3.705047    -12.203036    -7.171191    
59.358524    89.618324    -1.508154    4.651925    -3.120535    -85.233421    7.789363    5.534399    -1.728755    -10.799416    6.993503    18.160536    1.664452    -39.011749    18.091549    -26.461414    -4.189634    17.183777    8.203628    32.283875    -89.095314    18.472349    -8.904913    -52.125511    130.828171    36.959202    38.384449    23.906813    1.842781    8.819811    34.018536    23.122213    18.432449    7.283261    5.159351    73.374840    -129.306396    -16.305309    -1.467981    4.094103    -6.093998    -0.409229    -29.804407    39.819145    23.412235    1.858346    -7.511289    15.448166    3.863118    -14.252240    2.068258    -15.771483    33.933537    18.881622    3.047318    -13.532025    -8.292513    
59.622650    89.303436    -1.247495    4.644067    -3.024245    -85.803459    7.980610    5.503763    -1.581710    -11.010494    7.163999    18.264240    1.731360    -39.282001    18.196369    -26.796425    -4.146838    16.763914    7.530613    31.436691    -88.352654    18.150620    -8.746650    -51.925491    129.716675    35.193970    38.733223    24.265621    1.944286    9.155884    33.465927    22.925842    19.287571    6.750233    4.639525    72.945923    -129.768723    -16.116896    -2.303896    5.248653    -6.356711    0.429354    -30.586658    40.997295    24.477827    3.526890    -7.786646    17.134014    4.054159    -14.258933    3.150491    -15.532036    33.794525    18.154091    2.748791    -14.530148    -8.887868    
59.912006    89.041023    -0.961757    4.673358    -2.922915    -86.271454    8.202363    5.525016    -1.612336    -11.199725    7.199544    18.389042    1.781036    -39.537140    18.329857    -27.083067    -4.087288    16.315117    6.956321    30.587183    -87.685921    18.002058    -8.695863    -51.618729    128.330566    33.319752    39.393360    24.556852    2.036840    9.469979    32.991768    22.728619    20.233301    6.120745    4.062153    72.439255    -130.117065    -15.925007    -3.135323    6.279582    -6.552900    1.199547    -30.810856    41.863655    24.968607    5.059572    -7.948516    18.682396    4.163973    -14.526704    3.932054    -15.424726    33.897285    17.502678    2.785773    -15.229211    -8.988623    
60.219788    88.836464    -0.649342    4.733159    -2.828873    -86.622818    8.438448    5.599273    -1.813815    -11.356903    7.101885    18.527737    1.825265    -39.768944    18.489708    -27.308023    -4.009348    15.851788    6.559291    29.746120    -87.143196    18.096706    -8.729182    -51.191303    126.597374    31.372984    40.415253    24.767565    2.117383    9.763014    32.636875    22.509804    21.210096    5.406592    3.439490    71.904556    -130.348999    -15.732917    -3.919763    7.168405    -6.676090    1.831847    -30.498394    42.360832    24.896860    6.384895    -8.029886    20.093664    4.182045    -14.998076    4.351034    -15.462805    34.172340    17.021255    3.096191    -15.659784    -8.675138    
60.538620    88.691040    -0.309621    4.815538    -2.750907    -86.859467    8.674104    5.717313    -2.159963    -11.477574    6.894488    18.678230    1.878274    -39.977570    18.677931    -27.465429    -3.910949    15.396885    6.386942    28.919189    -86.744652    18.391960    -8.889961    -50.640938    124.623611    29.370728    41.719559    24.894806    2.192717    10.046461    32.427952    22.254072    22.150951    4.630726    2.798125    71.390083    -130.494766    -15.530406    -4.637362    7.906265    -6.715404    2.273503    -29.714085    42.435665    24.359066    7.438055    -8.082164    21.368893    4.104765    -15.609372    4.410064    -15.641312    34.549480    16.755705    3.602105    -15.851186    -8.055323    
60.861324    88.602531    0.057095    4.912664    -2.692794    -86.996666    8.898359    5.864422    -2.612349    -11.556479    6.606992    18.829977    1.946311    -40.156479    18.882217    -27.548246    -3.807013    14.959514    6.445375    28.128752    -86.492165    18.941572    -9.135145    -49.938576    122.288315    27.248087    43.248993    24.944843    2.258543    10.312873    32.366230    21.958521    23.007996    3.802837    2.141612    70.946632    -130.576706    -15.297477    -5.286089    8.495193    -6.658106    2.494773    -28.554474    42.050648    23.513853    8.173546    -8.158911    22.503880    3.936379    -16.296772    4.171693    -15.931409    34.965328    16.694265    4.226390    -15.834507    -7.243180    
61.182011    88.566170    0.450012    5.019580    -2.654362    -87.058250    9.104010    6.020755    -3.127683    -11.593861    6.274884    18.975285    2.035366    -40.302906    19.094290    -27.561272    -3.692919    14.548522    6.696412    27.379782    -86.331406    19.664827    -9.414927    -49.137691    119.735489    25.046654    44.879810    24.931747    2.301112    10.559833    32.440018    21.635363    23.738827    2.930048    1.472930    70.610680    -130.626083    -15.006328    -5.886854    8.945872    -6.494983    2.491107    -27.130764    41.193134    22.546791    8.572966    -8.302032    23.489346    3.686781    -17.004635    3.740480    -16.281454    35.369370    16.777872    4.900988    -15.643517    -6.344820    
